<?xml version="1.0" encoding="UTF-8"?>
<svg width="540px" height="136px" viewBox="0 0 540 136" version="1.1" xmlns="http://www.w3.org/2000/svg" xmlns:xlink="http://www.w3.org/1999/xlink">
    <!-- Generator: Sketch 54.1 (76490) - https://sketchapp.com -->
    <title>logo horizontal</title>
    <desc>Created with Sketch.</desc>
    <g id="logo-horizontal" stroke="none" stroke-width="1" fill="none" fill-rule="evenodd">
        <g id="logo-color" transform="translate(13.000000, 8.000000)">
            <g id="Group-25" transform="translate(138.000000, 44.000000)" fill="#574331">
                <path d="M207.400755,34.5774231 C202.26136,34.6442424 197.919005,29.9598589 197.864523,24.2897654 C197.807015,18.3282796 201.883018,13.8915796 207.404791,13.9066517 C212.684929,13.9217237 216.800784,18.4212237 216.840132,24.2219414 C216.877966,29.8814844 212.660211,34.5085942 207.400755,34.5774231 L207.400755,34.5774231 Z M170.358568,19.8646207 C170.130554,21.2467248 169.29568,22.1681276 168.14552,22.783066 C166.587761,23.6165486 162.316534,24.281727 160.510078,23.4819052 C160.510078,23.4819052 160.533283,20.9653805 160.549425,18.644792 C160.565568,16.3247059 160.626607,13.710213 160.626607,13.710213 C163.272982,13.0736714 166.271972,12.9812297 168.75793,14.7506847 C170.527056,16.0097007 170.687473,17.8751142 170.358568,19.8646207 L170.358568,19.8646207 Z M289.751647,1.27479266 L280.612926,1.27479266 L266.364573,1.27479266 L266.357006,4.9835141 C266.284869,4.94482925 262.618989,2.67649042 259.591749,1.68022997 C257.635974,1.03665477 255.066277,0.192119311 251.588054,0.0434087253 C240.369462,-0.435881474 233.96237,2.99953402 229.499954,13.0565898 C219.882,-3.79995608 195.194439,-4.19886218 185.010486,13.2635789 C182.932128,6.07623547 177.778608,2.77094174 170.864537,1.82542375 C162.681256,0.705070352 154.44097,1.60989388 146.231457,1.31950632 C145.799643,1.3039319 145.000081,1.35517677 145.000081,1.35517677 C145.000081,1.35517677 145.045482,2.56797188 145.044473,3.15879502 C145.029844,17.1812989 145.058093,31.2043053 145.00109,45.2268092 C144.999576,45.5985857 145.000081,47.0269107 145.000081,47.0269107 C145.000081,47.0269107 145.82537,47.0565523 146.866567,47.0309299 C150.24743,46.947029 160.036898,47.0269107 160.036898,47.0269107 C160.036898,47.0269107 160.045474,39.7762648 159.94307,37.6375453 C159.950636,36.2303212 159.914316,34.5794327 159.914316,34.5794327 C160.698744,34.5794327 161.831248,34.6050551 162.879507,34.6326872 C170.355037,34.8321402 177.468368,33.7112844 182.724292,27.4146973 C182.962395,28.2692808 183.165187,28.9419953 183.336702,29.6232505 C186.091535,40.5655362 194.977523,47.5951258 206.241011,47.970419 C214.261354,48.2376962 220.777913,45.3890846 226.110011,39.8455961 C226.889395,39.0352239 227.564861,38.1283907 228.111187,37.1466999 C230.39284,33.0456036 232.171552,28.751083 231.868878,23.4773836 C237.032487,28.4596906 243.360885,29.5041816 249.530884,30.9400425 C250.416203,31.1460268 251.326242,31.279163 252.181294,31.5730673 C253.379881,31.9855383 254.882655,32.4145884 254.736867,33.9680111 C254.591079,35.5229411 253.066614,35.6254308 251.792359,35.8158406 C248.430161,36.3177389 245.300517,35.2727456 242.209212,34.2589011 C240.414863,33.6700876 238.462619,32.7923937 236.963881,31.8227605 C236.082597,31.2500237 235.867194,31.0349963 235.184161,30.4622596 C235.184161,30.4622596 234.088483,31.6117522 233.461445,32.4055452 C231.682734,34.6573048 226.835923,39.974713 226.835923,39.974713 C226.835923,39.974713 227.460944,40.7268068 227.954806,41.0860232 C236.540138,47.8121628 245.759572,48.9656747 256.107978,47.3514615 C264.378026,46.0607943 269.556769,40.8157317 270.159593,33.349556 C270.712981,26.4942994 266.912412,21.9289849 258.250402,19.3381048 C254.774197,18.2986379 251.18903,17.6279331 247.676,16.7030136 C246.398718,16.3669075 244.730482,16.0760176 245.036687,14.2121112 C245.328767,12.4381346 247.020712,12.4672739 248.319181,12.4969155 C252.009275,12.5808164 255.615629,13.4112846 259.077205,15.0059042 C260.757547,15.8037164 262.265365,16.7919385 262.265365,16.7919385 C262.265365,16.7919385 262.398037,16.5924854 262.596288,16.2779826 L266.400893,10.3762824 L280.612926,10.3762824 L280.612926,46.9887282 L289.751647,46.9887282 L289.751647,10.3762824 L304,10.3762824 L304,1.27479266 L289.751647,1.27479266 Z" id="Fill-1"></path>
                <path d="M57.4119427,24.1132468 C57.5140033,30.0391012 61.5679909,34.4891662 66.8588917,34.4836181 C72.2721635,34.4775656 76.3302133,29.8837549 76.2601419,23.8413909 C76.1915938,17.9382332 72.1345595,13.6682286 66.6496929,13.7267357 C61.1729506,13.7857471 57.3088666,18.1303985 57.4119427,24.1132468 M42.0109532,25.2808656 C41.6727824,13.4664802 49.1932748,3.54802533 60.6682332,0.756836447 C72.5890083,-2.14178345 84.6087974,3.48043962 89.5894543,14.2870918 C89.8479062,14.8474479 90.4155863,15.9373936 90.7400475,16.7277429 C90.7400475,12.533394 90.7984404,1.07105955 90.7984404,1.07105955 L106.678251,1.13007096 C106.678251,1.13007096 107.349008,2.17260573 107.661282,2.70572583 C110.468709,7.49220623 113.362964,12.2287539 116.328306,17.1534319 C119.333253,12.2075703 122.268637,7.48211881 125.075048,2.6820204 C125.463488,2.0167551 126.034214,1.13007096 126.034214,1.13007096 C126.034214,1.13007096 127.280267,1.06046776 127.883491,1.07307704 C131.931385,1.16083759 135.984358,1.18202117 140.030729,1.0650071 C140.810146,1.04231041 141.999838,1.10031307 141.999838,1.10031307 C141.999838,1.10031307 142.000853,2.2946635 141.997806,3.07492537 C141.943983,17.0621408 141.928751,31.0493562 141.99933,45.0360673 C142.004915,46.1244998 141.968356,46.9804173 141.968356,46.9804173 L126.691769,46.9536857 C126.691769,46.9536857 126.734421,45.9202296 126.748131,44.8111178 C126.820741,38.9619278 126.755239,33.1112247 126.743053,27.2605216 C126.74153,26.6577983 126.773519,24.10669 126.773519,24.10669 C123.499964,29.1791487 119.656699,35.4086344 116.213043,40.7448792 C112.76888,35.3854334 108.951511,29.41469 105.618548,24.227739 L105.608393,25.1204756 C105.608393,31.4533574 105.456063,37.7912828 105.682526,44.1160947 C105.705375,44.755637 105.663231,47.034385 105.663231,47.034385 L90.7400475,47.0888571 C90.6933332,46.80994 90.7029807,44.9866389 90.7171981,44.6043257 C90.8695273,40.3691228 90.7634047,36.1253456 90.5821329,31.8407143 C87.0303238,40.1930973 81.0544495,45.5358989 72.090384,47.4061064 C61.2699335,49.6636708 51.1898028,45.3931619 45.2454098,36.1596428 C43.7439517,33.8279358 42.110475,28.7640514 42.0109532,25.2808656" id="Fill-3"></path>
                <path d="M44.9292445,35.0541989 C43.2830331,40.0568118 39.5533514,43.3493402 34.9924195,45.3840544 C26.0532984,49.3720741 17.079054,48.9675434 9.16359742,43.0126501 C1.56017779,37.2929373 -1.12038777,29.1847344 0.415363516,19.9694741 C2.06208391,10.0833461 7.99536765,3.66110665 17.7881364,0.911805248 C27.7936808,-1.89779887 38.4019197,1.95654983 43.7737405,10.1210353 C44.3718538,11.0295962 44.8340554,11.9934346 44.8340554,11.9934346 C44.6462224,12.2512288 43.7080753,12.7753599 43.2219492,13.0366717 C40.0766369,14.7271578 37.0331311,16.6045825 33.968755,18.4392926 C33.7681961,18.5593955 32.4956147,19.3418233 32.3215256,19.4317749 C32.3215256,19.4317749 32.1627074,19.1418193 31.4297005,18.0106408 C29.0698254,14.3668491 25.5483381,13.0457171 22.0100526,14.076391 C18.313458,15.1532971 15.8039274,18.5453249 15.6288202,22.7112377 C15.5448298,24.7168055 15.5753718,26.6967448 16.3501194,28.6153762 C18.8718668,34.8557025 26.7908866,36.2306044 30.7771207,30.8124052 C30.8432949,30.7214486 32.7465678,28.3761754 32.8112149,28.2937617 C32.8112149,28.2937617 33.6775883,28.8058323 35.6307464,30.0013337 C35.9229311,30.1802317 36.2166429,30.3561147 36.5118817,30.5299875 C39.2784738,32.160171 42.1697789,33.5943706 45,35.1255571 L44.9292445,35.0541989 Z" id="Fill-5"></path>
                <path d="M365.025437,0.0852526452 C370.354199,0.213668822 375.281329,2.16072199 379.528028,5.89545016 C380.087153,6.38728919 380.721712,6.88420396 380.721712,6.88420396 L374.330765,14.3323422 C374.330765,14.3323422 371.250226,11.8680713 369.674788,11.0985894 C364.654386,8.64751541 359.728276,8.39626637 355.141616,11.9233968 C350.401541,15.568792 348.697153,20.6353939 349.717543,26.3466145 C351.844461,38.2537887 363.429612,42.315902 372.878162,34.4941895 C373.808847,33.7236924 374.839941,32.9882179 374.839941,32.9882179 L381,39.8369115 C381,39.8369115 379.273695,41.7839647 376.857276,43.4137842 C368.479066,49.0661263 359.579448,49.4762459 350.762398,44.7410897 C342.375014,40.2363721 337.966744,30.7213933 339.206299,21.2388992 C340.982043,7.64708741 351.340891,-0.957303981 365.025437,0.0852526452" id="Fill-21"></path>
                <polygon id="Fill-26" points="340 10.3575409 340 1 315.980781 1 306 1 306 10.3575409 306 19.8209713 306 29.1790287 306 38.6424591 306 48 315.980781 48 340 48 340 38.6424591 315.980781 38.6424591 315.980781 29.1790287 337.724848 29.1790287 337.724848 19.8209713 315.980781 19.8209713 315.980781 10.3575409"></polygon>
            </g>
            <path d="M65.0639353,23.5621103 C65.0452261,35.7634142 61.847905,43.8911357 56.0593624,51.0824014 C54.8756169,52.553748 54.1658373,52.438675 53.0487433,51.0577996 C45.9544557,42.2896376 42.9859323,32.3417795 44.4132869,21.0249501 C45.3378323,13.6940096 48.2326883,7.31103212 52.8674981,1.67999684 C54.5255993,-0.334573385 54.5782189,-0.405204368 56.2573679,1.66333111 C62.0809903,8.8355503 65.1130469,17.0489813 65.0639353,23.5621103" id="Fill-7" fill="#90A841"></path>
            <path d="M39.4590054,56.0259974 C25.5902189,55.3300793 14.1143006,41.9577824 15.1267756,27.1419339 C15.1568016,26.7001134 15.1976369,26.2591074 15.2332677,25.8176941 C15.7697313,19.1944593 15.844596,19.7388961 21.8069491,20.7442922 C37.2194698,23.3447212 47.1144218,39.4168058 43.2114485,54.7705758 C42.8331215,56.2605491 42.8331215,56.2605491 39.4590054,56.0259974" id="Fill-9" fill="#90A841"></path>
            <path d="M64.0785589,48.1807857 C64.295042,34.1256414 73.1861137,23.1088278 86.1068244,20.5157697 C91.4907886,19.4353288 92.8487284,20.5092216 93.0391051,26.079631 C93.4672517,38.579186 88.4953686,47.9507828 77.4462933,53.704949 C74.032366,55.4827653 70.3300622,56.1719556 66.4952178,56.139215 C65.5750639,56.1314391 65.117196,55.8543715 64.8734015,54.8320452 C64.3199436,52.5111437 63.9910017,50.188605 64.0785589,48.1807857" id="Fill-11" fill="#90A841"></path>
            <path d="M19.0109667,52.1403244 C26.4460157,52.5543021 32.3292872,55.8280106 36.3425604,62.4094865 C37.3329372,64.033366 37.287993,65.4443773 36.308451,67.0800152 C28.1366387,80.7303335 8.42701705,80.4302909 0.602719425,66.5415603 C-0.200657528,65.1151413 -0.0549902785,63.9522734 0.711066967,62.6588463 C4.82666838,55.7128591 10.9751907,52.3750875 19.0109667,52.1403244" id="Fill-13" fill="#90A841"></path>
            <path d="M91.1276304,52.1403244 C98.5684575,52.5406464 104.714691,56.0109178 108.650671,63.2854692 C109.196161,64.2931904 109.212498,65.1227195 108.639514,66.1397979 C104.559292,73.3842437 98.4592797,77.2369366 90.2745293,77.1384834 C82.2678901,77.0424712 76.3539587,73.1336356 72.4227602,66.0177485 C71.8270637,64.9412728 72.0410363,64.0946567 72.5769639,63.1447055 C76.5735097,56.0646196 82.5404362,52.382389 91.1276304,52.1403244" id="Fill-15" fill="#90A841"></path>
            <path d="M43.0449455,89.9114933 C43.059016,100.787006 32.276298,108.502171 21.3677979,105.47916 C19.6486347,105.00266 18.4010475,104.122508 17.5384812,102.63847 C14.21613,96.923253 14.1688019,91.2267456 17.8292722,85.6834985 C21.4773775,80.1601553 26.9772502,77.7736729 33.8496394,78.1856845 C39.1955889,78.506536 42.5196456,82.1075567 43.0368443,87.9688688 C43.0939792,88.6121641 43.0449455,89.2638191 43.0449455,89.9114933" id="Fill-17" fill="#574331"></path>
            <path d="M67.0876265,89.6384761 C66.9541083,87.8344483 67.4117219,85.8096979 68.1390346,83.8439131 C69.9576968,78.9290527 72.4576441,77.6453562 78.6523553,78.2979616 C89.6016071,79.4513761 95.5768311,92.9078782 89.8545689,102.798158 C88.6236149,104.925302 86.7901174,105.618546 84.751968,105.943653 C75.2504946,107.458431 67.1039834,100.051478 67.0876265,89.6384761" id="Fill-19" fill="#574331"></path>
            <path d="M67.0642868,104.541965 C67.1060121,111.502594 61.6052868,117.088822 54.6602855,117.139979 C47.7223073,117.190734 42.0881435,111.641968 42.0645955,104.735315 C42.0414606,97.7497113 47.5269004,92.1787908 54.4681836,92.1405234 C61.4520184,92.1022561 67.0225614,97.5865716 67.0642868,104.541965" id="Fill-23" fill="#574331"></path>
        </g>
    </g>
</svg>