<?xml version="1.0" encoding="UTF-8"?>
<svg width="175px" height="100px" viewBox="0 0 175 100" version="1.1" xmlns="http://www.w3.org/2000/svg" xmlns:xlink="http://www.w3.org/1999/xlink">
    <!-- Generator: Sketch 54.1 (76490) - https://sketchapp.com -->
    <title>logo color</title>
    <desc>Created with Sketch.</desc>
    <g id="Page-1" stroke="none" stroke-width="1" fill="none" fill-rule="evenodd">
        <g id="Home" transform="translate(-383.000000, -4215.000000)">
            <g id="footer" transform="translate(0.000000, 4146.000000)">
                <g id="logo-color" transform="translate(383.000000, 69.000000)">
                    <g id="Group-25">
                        <path d="M95.1218085,93.6334112 C92.7509309,93.664486 90.7477394,91.4859813 90.7226064,88.8490654 C90.6960771,86.0766355 92.5763963,84.0133178 95.1236702,84.0203271 C97.5594747,84.0273364 99.4581782,86.1198598 99.4763298,88.8175234 C99.4937832,91.4495327 97.5480718,93.6014019 95.1218085,93.6334112 L95.1218085,93.6334112 Z M78.0337101,86.7911215 C77.9285239,87.4338785 77.5433843,87.8623832 77.0127992,88.1483645 C76.2941822,88.5359813 74.3238032,88.8453271 73.4904588,88.4733645 C73.4904588,88.4733645 73.5011636,87.3030374 73.5086104,86.2238318 C73.5160572,85.1448598 73.5442154,83.928972 73.5442154,83.928972 C74.7650266,83.6329439 76.148504,83.5899533 77.2953125,84.4128505 C78.1114362,84.9983645 78.1854388,85.8658879 78.0337101,86.7911215 L78.0337101,86.7911215 Z M133.111469,78.1457944 L128.895645,78.1457944 L122.322673,78.1457944 L122.319182,79.8705607 C122.285904,79.8525701 120.594781,78.7976636 119.198271,78.3343458 C118.296044,78.0350467 117.110605,77.6422897 115.506051,77.5731308 C110.330751,77.3502336 107.375066,78.9478972 105.316489,83.625 C100.879588,75.7857477 89.4908577,75.6002336 84.7928524,83.7212617 C83.8340758,80.3787383 81.4566822,78.8415888 78.267121,78.4018692 C74.4920545,77.8808411 70.6906915,78.3016355 66.9035239,78.1665888 C66.7043218,78.1593458 66.3354721,78.1831776 66.3354721,78.1831776 C66.3354721,78.1831776 66.3564162,78.7471963 66.3559508,79.0219626 C66.3492021,85.5432243 66.362234,92.0647196 66.3359375,98.5859813 C66.3352394,98.7588785 66.3354721,99.4231308 66.3354721,99.4231308 C66.3354721,99.4231308 66.7161902,99.4369159 67.1965093,99.425 C68.7561503,99.3859813 73.2721742,99.4231308 73.2721742,99.4231308 C73.2721742,99.4231308 73.2761303,96.0511682 73.2288896,95.0565421 C73.2323803,94.4021028 73.215625,93.6343458 73.215625,93.6343458 C73.5774934,93.6343458 74.0999335,93.6462617 74.5835106,93.6591121 C78.0320811,93.7518692 81.3135638,93.2306075 83.7381981,90.3023364 C83.8480386,90.6997664 83.9415891,91.0126168 84.0207114,91.3294393 C85.2915559,96.4182243 89.3907912,99.6873832 94.5868019,99.8619159 C98.2867021,99.986215 101.292886,98.6614486 103.75266,96.0834112 C104.112201,95.7065421 104.423803,95.2848131 104.675831,94.828271 C105.728391,92.921028 106.548936,90.9238318 106.409309,88.4712617 C108.791356,90.7883178 111.710738,91.2740654 114.557048,91.9418224 C114.965459,92.0376168 115.385273,92.0995327 115.779721,92.236215 C116.332646,92.4280374 117.025898,92.6275701 116.958644,93.35 C116.89139,94.0731308 116.188132,94.1207944 115.600299,94.2093458 C114.049269,94.442757 112.605519,93.9567757 111.179455,93.4852804 C110.351695,93.2114486 109.451097,92.803271 108.759707,92.3523364 C108.353158,92.0859813 108.25379,91.9859813 107.938697,91.7196262 C107.938697,91.7196262 107.433245,92.2542056 107.143983,92.6233645 C106.323438,93.6705607 104.087533,96.1434579 104.087533,96.1434579 C104.087533,96.1434579 104.375864,96.4932243 104.60369,96.6602804 C108.564229,99.7883178 112.817287,100.324766 117.591157,99.5740654 C121.40625,98.9738318 123.795279,96.5345794 124.073371,93.0623832 C124.328657,89.8742991 122.575399,87.7511682 118.579488,86.5462617 C116.975864,86.0628505 115.321975,85.7509346 113.701363,85.3207944 C113.112134,85.164486 112.342553,85.0292056 112.48381,84.1623832 C112.618551,83.3373832 113.399069,83.3509346 113.998072,83.3647196 C115.700366,83.4037383 117.364029,83.7899533 118.960904,84.5315421 C119.73607,84.9025701 120.431649,85.3621495 120.431649,85.3621495 C120.431649,85.3621495 120.492852,85.2693925 120.584309,85.1231308 L122.339428,82.3785047 L128.895645,82.3785047 L128.895645,99.4053738 L133.111469,99.4053738 L133.111469,82.3785047 L139.684441,82.3785047 L139.684441,78.1457944 L133.111469,78.1457944 Z" id="Fill-1" fill="#574331"></path>
                        <path d="M26.5978823,88.83 C26.6446576,91.5750935 28.5026363,93.6365421 30.9275033,93.633972 C33.4084541,93.6311682 35.2682945,91.5031308 35.2361802,88.7040654 C35.204764,85.969486 33.345389,83.9914486 30.8316257,84.0185514 C28.3215858,84.0458879 26.5506416,86.0585047 26.5978823,88.83 M19.5394714,89.3708879 C19.3844847,83.8979907 22.8311935,79.3033645 28.0902693,78.0103738 C33.5536669,76.6676168 39.0624435,79.2720561 41.345123,84.2781308 C41.4635738,84.5377103 41.7237467,85.0426168 41.8724501,85.4087383 C41.8724501,83.4657477 41.8992121,78.1559346 41.8992121,78.1559346 L49.1770711,78.183271 C49.1770711,78.183271 49.4844847,78.666215 49.6276031,78.9131776 C50.9142719,81.1304673 52.2407347,83.3246262 53.5997773,85.6059346 C54.9769714,83.3148131 56.3222839,81.1257944 57.6084874,78.9021963 C57.7865126,78.5940187 58.0480818,78.183271 58.0480818,78.183271 C58.0480818,78.183271 58.6191589,78.151028 58.8956217,78.1568692 C60.7508078,78.1975234 62.6083211,78.2073364 64.4628092,78.1531308 C64.8200233,78.1426168 65.3652693,78.169486 65.3652693,78.169486 C65.3652693,78.169486 65.3657347,78.722757 65.3643384,79.0842056 C65.3396709,85.5636449 65.3326895,92.0430841 65.3650366,98.5222897 C65.3675964,99.0264953 65.3508411,99.4229907 65.3508411,99.4229907 L58.3494448,99.4106075 C58.3494448,99.4106075 58.3689927,98.9318692 58.3752759,98.4180841 C58.4085539,95.7085047 58.3785339,92.9982243 58.3729488,90.2879439 C58.3722507,90.0087383 58.3869116,88.8269626 58.3869116,88.8269626 C56.8866124,91.176729 55.1252094,94.0624766 53.5469515,96.5344393 C51.9684608,94.051729 50.2189262,91.2858411 48.6913996,88.8830374 L48.6867453,89.2965888 C48.6867453,92.2302336 48.6169315,95.166215 48.7207214,98.0961215 C48.7311935,98.3923832 48.7118783,99.4479907 48.7118783,99.4479907 L41.8724501,99.4732243 C41.8510406,99.3440187 41.8554621,98.4993925 41.8619781,98.3222897 C41.9317919,96.3603738 41.8831549,94.394486 41.8000765,92.4096729 C40.1722507,96.2788318 37.4334541,98.7538318 33.325143,99.6201869 C28.3660339,100.665981 23.7462201,98.6877103 21.0218517,94.4103738 C20.3337201,93.3302336 19.5850831,90.9844393 19.5394714,89.3708879" id="Fill-3" fill="#574331"></path>
                        <path d="M20.5512134,93.951472 C19.7986203,96.2774065 18.0935339,97.8082477 16.0084275,98.7542757 C11.9217586,100.608481 7.81903258,100.420397 4.20034907,97.6517056 C0.724318484,94.9923598 -0.501146941,91.2225 0.200947473,86.9379206 C0.953773271,82.3414252 3.66627327,79.3554439 8.14320146,78.0771729 C12.7174036,76.7708645 17.5671376,78.5629206 20.0229555,82.3589486 C20.296393,82.7813785 20.5076961,83.2295093 20.5076961,83.2295093 C20.4218251,83.3493692 19.9929355,83.5930607 19.7706948,83.7145561 C18.3327626,84.5005374 16.941373,85.3734346 15.5404422,86.226472 C15.4487533,86.2823131 14.8669714,86.6460981 14.7873836,86.6879206 C14.7873836,86.6879206 14.7147773,86.5531075 14.3796709,86.0271729 C13.3008145,84.333014 11.6909076,83.7187617 10.0733211,84.1979673 C8.38336104,84.6986682 7.2360871,86.275771 7.15603391,88.2126869 C7.1176363,89.1451636 7.13159907,90.0657243 7.4857879,90.9577804 C8.63864694,93.8591822 12.2589594,94.4984346 14.0813331,91.9792757 C14.1115858,91.936986 14.9816988,90.8465654 15.0112533,90.8082477 C15.0112533,90.8082477 15.4073305,91.0463318 16.3002493,91.6021729 C16.4338265,91.6853505 16.5681017,91.7671262 16.7030751,91.8479673 C17.967869,92.6059112 19.2896775,93.2727336 20.5835605,93.9846495 L20.5512134,93.951472 Z" id="Fill-5" fill="#574331"></path>
                        <path d="M93.8059807,13.8943458 C93.7948105,21.0786916 91.8858677,25.8644393 88.4298504,30.098785 C87.7231017,30.9651402 87.2993318,30.8973832 86.632377,30.0842991 C82.3967719,24.9214486 80.6244315,19.063972 81.4766257,12.4004206 C82.0286203,8.08383178 83.7569781,4.32542056 86.5241656,1.00976636 C87.5141257,-0.176448598 87.5455419,-0.218037383 88.5480685,0.999953271 C92.0250299,5.22308411 93.8353025,10.0592991 93.8059807,13.8943458" id="Fill-7" fill="#90A841"></path>
                        <path d="M78.9048471,32.7671028 C70.8432114,32.3678037 64.1725,24.6951402 64.7610306,16.1942056 C64.778484,15.9407009 64.8022207,15.6876636 64.8229322,15.4343925 C65.1347673,11.6341589 65.1782846,11.9465421 68.6440758,12.5234112 C77.6030519,14.0154673 83.3547806,23.2371963 81.0860638,32.0467757 C80.8661503,32.9016822 80.8661503,32.9016822 78.9048471,32.7671028" id="Fill-9" fill="#90A841"></path>
                        <path d="M93.6698437,28.3018224 C93.7952759,20.277757 98.9468384,13.988271 106.433208,12.5078972 C109.552723,11.8910748 110.339525,12.5041589 110.44983,15.6842991 C110.697902,22.8202804 107.817151,28.170514 101.415223,31.4555607 C99.4371642,32.470514 97.292018,32.863972 95.0700765,32.8452804 C94.5369315,32.8408411 94.271639,32.6826636 94.1303823,32.0990187 C93.8097041,30.7740187 93.6191124,29.4480841 93.6698437,28.3018224" id="Fill-11" fill="#90A841"></path>
                        <path d="M66.6831217,31.2874299 C70.9948238,31.5259813 74.4066257,33.4124299 76.733986,37.2049533 C77.3083211,38.1407009 77.2822573,38.953785 76.7142055,39.8963084 C71.9752427,47.7621963 60.5453225,47.5892991 56.007889,39.586028 C55.541998,38.7640654 55.6264727,38.093972 56.0707214,37.3486449 C58.4574235,33.3460748 62.0230485,31.4227103 66.6831217,31.2874299" id="Fill-13" fill="#90A841"></path>
                        <path d="M108.939338,31.3045327 C113.285017,31.5344393 116.874611,33.5274299 119.173348,37.7052336 C119.491932,38.283972 119.501473,38.7603738 119.166832,39.344486 C116.783853,43.505 113.221253,45.7176168 108.4411,45.6610748 C103.76497,45.6059346 100.311047,43.3610748 98.0151031,39.2743925 C97.6671975,38.6561682 97.7921642,38.1699533 98.1051629,37.6243925 C100.439272,33.558271 103.924146,31.4435514 108.939338,31.3045327" id="Fill-15" fill="#90A841"></path>
                        <path d="M80.5690691,53.0636215 C80.5767487,59.4467991 74.6916755,63.9750701 68.7379521,62.200771 C67.7996543,61.9210981 67.1187367,61.4045093 66.6479588,60.5334813 C64.8346609,57.1790421 64.8088298,53.8355841 66.8066689,50.5820794 C68.7977593,47.340257 71.7995213,45.9395561 75.5503856,46.1813785 C78.4681383,46.3696963 80.282367,48.4832477 80.5646476,51.9234346 C80.5958311,52.3010047 80.5690691,52.6834813 80.5690691,53.0636215" id="Fill-17" fill="#574331"></path>
                        <path d="M94.437982,52.8820093 C94.3562999,51.8240654 94.6362533,50.6366822 95.0812001,49.4838785 C96.1937999,46.6016355 97.7231882,45.8488318 101.512916,46.2315421 C108.21132,46.9079439 111.866772,54.7992991 108.366074,60.5992991 C107.613015,61.846729 106.49134,62.253271 105.244465,62.4439252 C99.4317653,63.332243 94.4479887,58.9885514 94.437982,52.8820093" id="Fill-19" fill="#574331"></path>
                        <path d="M167.695449,77.8388785 C170.128461,77.8979907 172.378095,78.7942523 174.317058,80.5134112 C174.572344,80.7398131 174.862071,80.9685514 174.862071,80.9685514 L171.944086,84.3970561 C171.944086,84.3970561 170.53757,83.2627103 169.818255,82.9085047 C167.526034,81.7802336 165.276865,81.6645794 163.182683,83.2881776 C161.018454,84.966215 160.240263,87.2984579 160.706154,89.9274299 C161.677264,95.4085047 166.966825,97.2783645 171.280854,93.6778972 C171.705788,93.3232243 172.176566,92.9846729 172.176566,92.9846729 L174.989132,96.137243 C174.989132,96.137243 174.200934,97.0335047 173.097643,97.7837383 C169.272311,100.385607 165.208913,100.574393 161.183215,98.3947196 C157.353693,96.3211215 155.340961,91.941215 155.906918,87.5762617 C156.717689,81.3197196 161.447344,77.358972 167.695449,77.8388785" id="Fill-21" fill="#574331"></path>
                        <path d="M94.5716057,61.5024533 C94.5951097,65.5398364 91.4965392,68.7800234 87.5844049,68.8096963 C83.6762267,68.8391355 80.50249,65.6206776 80.4892254,61.6146028 C80.4761935,57.5627336 83.5661536,54.3314252 87.4761935,54.309229 C91.4102028,54.2870327 94.5481017,57.4681075 94.5716057,61.5024533" id="Fill-23" fill="#574331"></path>
                    </g>
                    <polygon id="Fill-26" fill="#574331" points="157 82.3801255 157 78 145.696838 78 141 78 141 82.3801255 141 86.8098164 141 91.1901836 141 95.6198745 141 100 145.696838 100 157 100 157 95.6198745 145.696838 95.6198745 145.696838 91.1901836 155.92934 91.1901836 155.92934 86.8098164 145.696838 86.8098164 145.696838 82.3801255"></polygon>
                </g>
            </g>
        </g>
    </g>
</svg>